# This file is brought to you by Roblox Corporation
# Generated by Roblox Studio

mtllib lowtorso.mtl

g Rig1

v -1.69245 2.23313 7.30383 
v -1.69245 2.23313 8.20562 
v -1.69245 2.55627 7.30383 
v -1.69245 2.55627 8.20562 
v 0.29896 2.23303 8.20562 
v 0.29896 2.23303 7.30383 
v 0.29896 2.55627 7.30383 
v 0.29896 2.55627 8.20562 
v -1.63143 2.23313 8.25833 
v -1.63149 2.55627 8.25833 
v -1.66194 2.23313 8.23193 
v -1.66197 2.55627 8.23193 
v 0.29896 2.23303 8.20562 
v 0.268476 2.55627 8.23198 
v 0.268476 2.23303 8.23198 
v 0.29896 2.55627 8.20562 
v 0.237993 2.23303 8.25833 
v 0.237993 2.55627 8.25833 
v -1.66194 2.23313 8.23193 
v -1.66197 2.55627 8.23193 
v -1.69245 2.23313 8.20562 
v -1.69245 2.55627 8.20562 
v 0.237993 2.23303 7.25433 
v 0.237993 2.55627 7.25433 
v 0.268476 2.55627 7.27908 
v 0.268476 2.23303 7.27908 
v -1.69245 2.23313 7.30383 
v -1.69245 2.55627 7.30383 
v -1.66197 2.55627 7.27908 
v -1.66194 2.23313 7.27908 
v -1.63149 2.55627 7.25433 
v -1.63143 2.23313 7.25433 
v 0.29896 2.55627 7.30383 
v 0.29896 2.23303 7.30383 
v 0.268476 2.55627 7.27908 
v 0.268476 2.23303 7.27908 
v 0.268476 2.23303 8.23198 
v 0.239456 2.19207 8.19147 
v 0.29896 2.23303 8.20562 
v 0.237993 2.23303 8.25833 
v -1.62901 2.19217 8.19147 
v -1.63143 2.23313 8.25833 
v -1.66194 2.23313 8.23193 
v -1.66194 2.23313 8.23193 
v -1.69245 2.23313 8.20562 
v -1.62901 2.19217 8.19147 
v 0.237993 2.23303 7.25433 
v 0.268476 2.23303 7.27908 
v 0.239456 2.19207 7.32251 
v 0.239456 2.19207 7.32251 
v 0.268476 2.23303 7.27908 
v 0.29896 2.23303 7.30383 
v 0.29896 2.55627 8.20562 
v 0.239456 2.59272 8.19147 
v 0.268476 2.55627 8.23198 
v 0.237993 2.55627 8.25833 
v -1.66194 2.23313 7.27908 
v -1.62901 2.19217 7.32251 
v -1.69245 2.23313 7.30383 
v -1.63143 2.23313 7.25433 
v -1.63149 2.55627 8.25833 
v -1.62907 2.59272 8.19147 
v -1.66197 2.55627 8.23193 
v -1.62907 2.59272 8.19147 
v -1.69245 2.55627 8.20562 
v -1.66197 2.55627 8.23193 
v 0.239456 2.19207 7.32251 
v 0.29896 2.23303 8.20562 
v 0.239456 2.19207 8.19147 
v 0.29896 2.23303 7.30383 
v 0.239456 2.59272 7.32251 
v 0.268476 2.55627 7.27908 
v 0.237993 2.55627 7.25433 
v 0.29896 2.55627 7.30383 
v 0.268476 2.55627 7.27908 
v 0.239456 2.59272 7.32251 
v -1.69245 2.55627 7.30383 
v -1.62907 2.59272 7.32251 
v -1.66197 2.55627 7.27908 
v -1.63149 2.55627 7.25433 
v -1.62901 2.19217 7.32251 
v -1.69245 2.23313 8.20562 
v -1.69245 2.23313 7.30383 
v -1.62901 2.19217 8.19147 
v 0.239456 2.59272 7.32251 
v 0.29896 2.55627 8.20562 
v 0.29896 2.55627 7.30383 
v 0.239456 2.59272 8.19147 
v -1.62907 2.59272 7.32251 
v -1.69245 2.55627 8.20562 
v -1.62907 2.59272 8.19147 
v -1.69245 2.55627 7.30383 
v -0.229377 2.55627 7.25433 
v 0.237993 2.55627 7.25433 
v -0.229362 2.23305 7.25433 
v 0.237993 2.23303 7.25433 
v -0.696717 2.23308 7.25433 
v -0.696747 2.55627 7.25433 
v -1.16407 2.2331 7.25433 
v -1.16412 2.55627 7.25433 
v -1.63143 2.23313 7.25433 
v -1.63149 2.55627 7.25433 
v -0.229362 2.23305 8.25833 
v 0.237993 2.55627 8.25833 
v -0.229377 2.55627 8.25833 
v 0.237993 2.23303 8.25833 
v -0.696717 2.23308 8.25833 
v -0.696747 2.55627 8.25833 
v -1.16407 2.2331 8.25833 
v -1.16412 2.55627 8.25833 
v -1.63143 2.23313 8.25833 
v -1.63149 2.55627 8.25833 
v 0.237993 2.23303 8.25833 
v -0.22766 2.1921 8.19147 
v 0.239456 2.19207 8.19147 
v -0.229362 2.23305 8.25833 
v -0.694775 2.19212 8.19147 
v -0.696717 2.23308 8.25833 
v -1.16189 2.19215 8.19147 
v -1.16407 2.2331 8.25833 
v -1.62901 2.19217 8.19147 
v -1.63143 2.23313 8.25833 
v 0.237993 2.23303 7.25433 
v -0.22766 2.1921 7.32251 
v -0.229362 2.23305 7.25433 
v 0.239456 2.19207 7.32251 
v -0.694775 2.19212 7.32251 
v -0.696717 2.23308 7.25433 
v -1.16189 2.19215 7.32251 
v -1.16407 2.2331 7.25433 
v -1.62901 2.19217 7.32251 
v -1.63143 2.23313 7.25433 
v -0.229377 2.55627 8.25833 
v 0.237993 2.55627 8.25833 
v -0.227674 2.59272 8.19147 
v 0.239456 2.59272 8.19147 
v -0.694805 2.59272 8.19147 
v -0.696747 2.55627 8.25833 
v -1.16194 2.59272 8.19147 
v -1.16412 2.55627 8.25833 
v -1.62907 2.59272 8.19147 
v -1.63149 2.55627 8.25833 
v 0.237993 2.55627 7.25433 
v -0.227674 2.59272 7.32251 
v 0.239456 2.59272 7.32251 
v -0.229377 2.55627 7.25433 
v -0.694805 2.59272 7.32251 
v -0.696747 2.55627 7.25433 
v -1.16194 2.59272 7.32251 
v -1.16412 2.55627 7.25433 
v -1.62907 2.59272 7.32251 
v -1.63149 2.55627 7.25433 
v 0.239456 2.19207 7.32251 
v -0.22766 2.1921 8.19147 
v -0.22766 2.1921 7.32251 
v 0.239456 2.19207 8.19147 
v -0.694775 2.19212 8.19147 
v -0.694775 2.19212 7.32251 
v -1.16189 2.19215 8.19147 
v -1.16189 2.19215 7.32251 
v -1.62901 2.19217 7.32251 
v -1.62901 2.19217 8.19147 
v 0.239456 2.59272 8.19147 
v 0.239456 2.59272 7.32251 
v -0.227674 2.59272 7.32251 
v -0.227674 2.59272 8.19147 
v -0.694805 2.59272 7.32251 
v -0.694805 2.59272 8.19147 
v -1.16194 2.59272 7.32251 
v -1.16194 2.59272 8.19147 
v -1.62907 2.59272 8.19147 
v -1.62907 2.59272 7.32251 

vn -1 0 0 
vn -1 0 0 
vn -1 0 0 
vn -1 0 0 
vn 1 0 0 
vn 1 0 0 
vn 1 0 0 
vn 1 0 0 
vn -0.653543 0 0.755906 
vn -0.653543 0 0.755906 
vn -0.653543 0 0.755906 
vn -0.653543 0 0.755906 
vn 0.653543 0 0.755906 
vn 0.653543 0 0.755906 
vn 0.653543 0 0.755906 
vn 0.653543 0 0.755906 
vn 0.653543 0 0.755906 
vn 0.653543 0 0.755906 
vn -0.653543 0 0.755906 
vn -0.653543 0 0.755906 
vn -0.653543 0 0.755906 
vn -0.653543 0 0.755906 
vn 0.629921 0 -0.779528 
vn 0.629921 0 -0.779528 
vn 0.629921 0 -0.779528 
vn 0.629921 0 -0.779528 
vn -0.629921 0 -0.779528 
vn -0.629921 0 -0.779528 
vn -0.629921 0 -0.779528 
vn -0.629921 0 -0.779528 
vn -0.629921 0 -0.779528 
vn -0.629921 0 -0.779528 
vn 0.629921 0 -0.779528 
vn 0.629921 0 -0.779528 
vn 0.629921 0 -0.779528 
vn 0.629921 0 -0.779528 
vn 0.417323 -0.771654 0.480315 
vn 0.417323 -0.771654 0.480315 
vn 0.417323 -0.771654 0.480315 
vn 0.417323 -0.771654 0.480315 
vn -0.401575 -0.787402 0.464567 
vn -0.401575 -0.787402 0.464567 
vn -0.401575 -0.787402 0.464567 
vn -0.401575 -0.787402 0.464567 
vn -0.401575 -0.787402 0.464567 
vn -0.401575 -0.787402 0.464567 
vn 0.393701 -0.787402 -0.480315 
vn 0.393701 -0.787402 -0.480315 
vn 0.393701 -0.787402 -0.480315 
vn 0.393701 -0.787402 -0.480315 
vn 0.393701 -0.787402 -0.480315 
vn 0.393701 -0.787402 -0.480315 
vn 0.385827 0.80315 0.448819 
vn 0.385827 0.80315 0.448819 
vn 0.385827 0.80315 0.448819 
vn 0.385827 0.80315 0.448819 
vn -0.377953 -0.80315 -0.464567 
vn -0.377953 -0.80315 -0.464567 
vn -0.377953 -0.80315 -0.464567 
vn -0.377953 -0.80315 -0.464567 
vn -0.377953 0.818898 0.433071 
vn -0.377953 0.818898 0.433071 
vn -0.377953 0.818898 0.433071 
vn -0.377953 0.818898 0.433071 
vn -0.377953 0.818898 0.433071 
vn -0.377953 0.818898 0.433071 
vn 0.566929 -0.826772 0 
vn 0.566929 -0.826772 0 
vn 0.566929 -0.826772 0 
vn 0.566929 -0.826772 0 
vn 0.362205 0.818898 -0.448819 
vn 0.362205 0.818898 -0.448819 
vn 0.362205 0.818898 -0.448819 
vn 0.362205 0.818898 -0.448819 
vn 0.362205 0.818898 -0.448819 
vn 0.362205 0.818898 -0.448819 
vn -0.354331 0.834646 -0.433071 
vn -0.354331 0.834646 -0.433071 
vn -0.354331 0.834646 -0.433071 
vn -0.354331 0.834646 -0.433071 
vn -0.543307 -0.84252 0 
vn -0.543307 -0.84252 0 
vn -0.543307 -0.84252 0 
vn -0.543307 -0.84252 0 
vn 0.519685 0.850394 0 
vn 0.519685 0.850394 0 
vn 0.519685 0.850394 0 
vn 0.519685 0.850394 0 
vn -0.496063 0.866142 0 
vn -0.496063 0.866142 0 
vn -0.496063 0.866142 0 
vn -0.496063 0.866142 0 
vn 0 0 -1 
vn 0 0 -1 
vn 0 0 -1 
vn 0 0 -1 
vn 0 0 -1 
vn 0 0 -1 
vn 0 0 -1 
vn 0 0 -1 
vn 0 0 -1 
vn 0 0 -1 
vn 0 0 1 
vn 0 0 1 
vn 0 0 1 
vn 0 0 1 
vn 0 0 1 
vn 0 0 1 
vn 0 0 1 
vn 0 0 1 
vn 0 0 1 
vn 0 0 1 
vn 0 -0.850394 0.519685 
vn 0 -0.850394 0.519685 
vn 0 -0.850394 0.519685 
vn 0 -0.850394 0.519685 
vn 0 -0.850394 0.519685 
vn 0 -0.850394 0.519685 
vn 0 -0.850394 0.519685 
vn 0 -0.850394 0.519685 
vn 0 -0.850394 0.519685 
vn 0 -0.850394 0.519685 
vn 0 -0.858268 -0.511811 
vn 0 -0.858268 -0.511811 
vn 0 -0.858268 -0.511811 
vn 0 -0.858268 -0.511811 
vn 0 -0.858268 -0.511811 
vn 0 -0.858268 -0.511811 
vn 0 -0.858268 -0.511811 
vn 0 -0.858268 -0.511811 
vn 0 -0.858268 -0.511811 
vn 0 -0.858268 -0.511811 
vn 0 0.88189 0.480315 
vn 0 0.88189 0.480315 
vn 0 0.88189 0.480315 
vn 0 0.88189 0.480315 
vn 0 0.88189 0.480315 
vn 0 0.88189 0.480315 
vn 0 0.88189 0.480315 
vn 0 0.88189 0.480315 
vn 0 0.88189 0.480315 
vn 0 0.88189 0.480315 
vn 0 0.88189 -0.472441 
vn 0 0.88189 -0.472441 
vn 0 0.88189 -0.472441 
vn 0 0.88189 -0.472441 
vn 0 0.88189 -0.472441 
vn 0 0.88189 -0.472441 
vn 0 0.88189 -0.472441 
vn 0 0.88189 -0.472441 
vn 0 0.88189 -0.472441 
vn 0 0.88189 -0.472441 
vn 0 -1 0 
vn 0 -1 0 
vn 0 -1 0 
vn 0 -1 0 
vn 0 -1 0 
vn 0 -1 0 
vn 0 -1 0 
vn 0 -1 0 
vn 0 -1 0 
vn 0 -1 0 
vn 0 1 0 
vn 0 1 0 
vn 0 1 0 
vn 0 1 0 
vn 0 1 0 
vn 0 1 0 
vn 0 1 0 
vn 0 1 0 
vn 0 1 0 
vn 0 1 0 

vt 0.129355 0.807205 
vt 0.187213 0.80713 
vt 0.129352 0.829033 
vt 0.187213 0.829033 
vt 0.317604 0.807283 
vt 0.374123 0.807415 
vt 0.374101 0.829018 
vt 0.317715 0.829031 
vt 0.192244 0.807237 
vt 0.192295 0.829033 
vt 0.189636 0.807127 
vt 0.189607 0.829033 
vt 0.317604 0.807283 
vt 0.314602 0.829031 
vt 0.314602 0.807293 
vt 0.317715 0.829031 
vt 0.311936 0.807304 
vt 0.311883 0.829031 
vt 0.189636 0.807127 
vt 0.189607 0.829033 
vt 0.187213 0.80713 
vt 0.187213 0.829033 
vt 0.00467839 0.807205 
vt 0.00467839 0.829033 
vt 0.0021991 0.829033 
vt 0.0021991 0.807205 
vt 0.129355 0.807205 
vt 0.129352 0.829033 
vt 0.126906 0.829033 
vt 0.126932 0.807205 
vt 0.12446 0.829033 
vt 0.12451 0.807205 
vt 0.374101 0.829018 
vt 0.374123 0.807415 
vt 0.376432 0.829018 
vt 0.376432 0.807415 
vt 0.314602 0.807293 
vt 0.3144 0.803063 
vt 0.317604 0.807283 
vt 0.311936 0.807304 
vt 0.18968 0.803063 
vt 0.192244 0.807237 
vt 0.189636 0.807127 
vt 0.189636 0.807127 
vt 0.187213 0.80713 
vt 0.18968 0.803063 
vt 0.00467839 0.807205 
vt 0.0021991 0.807205 
vt 0.0021991 0.803065 
vt 0.376432 0.803063 
vt 0.376432 0.807415 
vt 0.374123 0.807415 
vt 0.317715 0.829031 
vt 0.314602 0.833792 
vt 0.314602 0.829031 
vt 0.311883 0.829031 
vt 0.126932 0.807205 
vt 0.126863 0.803057 
vt 0.129355 0.807205 
vt 0.12451 0.807205 
vt 0.192295 0.829033 
vt 0.189607 0.833792 
vt 0.189607 0.829033 
vt 0.189607 0.833792 
vt 0.187213 0.829033 
vt 0.189607 0.829033 
vt 0.376432 0.803063 
vt 0.317604 0.807283 
vt 0.3144 0.803063 
vt 0.374123 0.807415 
vt 0.0021991 0.833792 
vt 0.0021991 0.829033 
vt 0.00467839 0.829033 
vt 0.374101 0.829018 
vt 0.376432 0.829018 
vt 0.376432 0.833792 
vt 0.129352 0.829033 
vt 0.127009 0.833792 
vt 0.126906 0.829033 
vt 0.12446 0.829033 
vt 0.126863 0.803057 
vt 0.187213 0.80713 
vt 0.129355 0.807205 
vt 0.18968 0.803063 
vt 0.376432 0.833792 
vt 0.317715 0.829031 
vt 0.374101 0.829018 
vt 0.314602 0.833792 
vt 0.127009 0.833792 
vt 0.187213 0.829033 
vt 0.189607 0.833792 
vt 0.129352 0.829033 
vt 0.0346239 0.829033 
vt 0.0046784 0.829033 
vt 0.0346362 0.807205 
vt 0.0046784 0.807205 
vt 0.064594 0.807205 
vt 0.0645693 0.829033 
vt 0.0945518 0.807205 
vt 0.0945148 0.829033 
vt 0.12451 0.807205 
vt 0.12446 0.829033 
vt 0.282013 0.807287 
vt 0.311883 0.829031 
vt 0.281986 0.829032 
vt 0.311936 0.807304 
vt 0.25209 0.807271 
vt 0.252089 0.829032 
vt 0.222167 0.807254 
vt 0.222192 0.829032 
vt 0.192244 0.807237 
vt 0.192295 0.829033 
vt 0.311936 0.807304 
vt 0.28322 0.803063 
vt 0.3144 0.803063 
vt 0.282013 0.807287 
vt 0.25204 0.803063 
vt 0.25209 0.807271 
vt 0.22086 0.803063 
vt 0.222167 0.807254 
vt 0.18968 0.803063 
vt 0.192244 0.807237 
vt 0.0046784 0.807205 
vt 0.0333651 0.803063 
vt 0.0346362 0.807205 
vt 0.00219909 0.803065 
vt 0.0645311 0.803061 
vt 0.064594 0.807205 
vt 0.0956971 0.803059 
vt 0.0945518 0.807205 
vt 0.126863 0.803057 
vt 0.12451 0.807205 
vt 0.281986 0.829032 
vt 0.311883 0.829031 
vt 0.283353 0.833792 
vt 0.314602 0.833792 
vt 0.252104 0.833792 
vt 0.252089 0.829032 
vt 0.220855 0.833792 
vt 0.222192 0.829032 
vt 0.189607 0.833792 
vt 0.192295 0.829033 
vt 0.0046784 0.829033 
vt 0.0334017 0.833792 
vt 0.00219909 0.833792 
vt 0.0346239 0.829033 
vt 0.0646043 0.833792 
vt 0.0645693 0.829033 
vt 0.0958069 0.833792 
vt 0.0945148 0.829033 
vt 0.127009 0.833792 
vt 0.12446 0.829033 
vt 0.00219909 0.802628 
vt 0.0332776 0.74058 
vt 0.0332759 0.802647 
vt 0.00219909 0.740584 
vt 0.064356 0.740577 
vt 0.0643527 0.802666 
vt 0.0954345 0.740573 
vt 0.0954295 0.802685 
vt 0.126506 0.802704 
vt 0.126513 0.740569 
vt 0.130971 0.798678 
vt 0.130971 0.767817 
vt 0.146427 0.767801 
vt 0.146377 0.798678 
vt 0.161882 0.767784 
vt 0.161784 0.798678 
vt 0.177337 0.767768 
vt 0.17719 0.798678 
vt 0.192597 0.798678 
vt 0.192792 0.767752 

usemtl Rig1Mtl

f 1/1/1 2/2/2 3/3/3 
f 3/3/3 2/2/2 4/4/4 
f 5/5/5 6/6/6 7/7/7 
f 7/7/7 8/8/8 5/5/5 
f 9/9/9 10/10/10 11/11/11 
f 11/11/11 10/10/10 12/12/12 
f 13/13/13 14/14/14 15/15/15 
f 14/14/14 13/13/13 16/16/16 
f 15/15/15 14/14/14 17/17/17 
f 17/17/17 14/14/14 18/18/18 
f 19/19/19 20/20/20 21/21/21 
f 21/21/21 20/20/20 22/22/22 
f 23/23/23 24/24/24 25/25/25 
f 25/25/25 26/26/26 23/23/23 
f 27/27/27 28/28/28 29/29/29 
f 29/29/29 30/30/30 27/27/27 
f 31/31/31 30/30/30 29/29/29 
f 30/30/30 31/31/31 32/32/32 
f 33/33/33 34/34/34 35/35/35 
f 35/35/35 34/34/34 36/36/36 
f 37/37/37 38/38/38 39/39/39 
f 40/40/40 38/38/38 37/37/37 
f 41/41/41 42/42/42 43/43/43 
f 44/44/44 45/45/45 46/46/46 
f 47/47/47 48/48/48 49/49/49 
f 50/50/50 51/51/51 52/52/52 
f 53/53/53 54/54/54 55/55/55 
f 55/55/55 54/54/54 56/56/56 
f 57/57/57 58/58/58 59/59/59 
f 60/60/60 58/58/58 57/57/57 
f 61/61/61 62/62/62 63/63/63 
f 64/64/64 65/65/65 66/66/66 
f 67/67/67 68/68/68 69/69/69 
f 68/68/68 67/67/67 70/70/70 
f 71/71/71 72/72/72 73/73/73 
f 74/74/74 75/75/75 76/76/76 
f 77/77/77 78/78/78 79/79/79 
f 79/79/79 78/78/78 80/80/80 
f 81/81/81 82/82/82 83/83/83 
f 82/82/82 81/81/81 84/84/84 
f 85/85/85 86/86/86 87/87/87 
f 86/86/86 85/85/85 88/88/88 
f 89/89/89 90/90/90 91/91/91 
f 90/90/90 89/89/89 92/92/92 
f 93/93/93 94/94/94 95/95/95 
f 94/94/94 96/96/96 95/95/95 
f 93/93/93 95/95/95 97/97/97 
f 98/98/98 93/93/93 97/97/97 
f 98/98/98 97/97/97 99/99/99 
f 100/100/100 98/98/98 99/99/99 
f 100/100/100 99/99/99 101/101/101 
f 102/102/102 100/100/100 101/101/101 
f 103/103/103 104/104/104 105/105/105 
f 104/104/104 103/103/103 106/106/106 
f 105/105/105 107/107/107 103/103/103 
f 107/107/107 105/105/105 108/108/108 
f 108/108/108 109/109/109 107/107/107 
f 109/109/109 108/108/108 110/110/110 
f 110/110/110 111/111/111 109/109/109 
f 111/111/111 110/110/110 112/112/112 
f 113/113/113 114/114/114 115/115/115 
f 114/114/114 113/113/113 116/116/116 
f 116/116/116 117/117/117 114/114/114 
f 117/117/117 116/116/116 118/118/118 
f 118/118/118 119/119/119 117/117/117 
f 119/119/119 118/118/118 120/120/120 
f 120/120/120 121/121/121 119/119/119 
f 121/121/121 120/120/120 122/122/122 
f 123/123/123 124/124/124 125/125/125 
f 124/124/124 123/123/123 126/126/126 
f 127/127/127 125/125/125 124/124/124 
f 125/125/125 127/127/127 128/128/128 
f 129/129/129 128/128/128 127/127/127 
f 128/128/128 129/129/129 130/130/130 
f 131/131/131 130/130/130 129/129/129 
f 130/130/130 131/131/131 132/132/132 
f 133/133/133 134/134/134 135/135/135 
f 136/136/136 135/135/135 134/134/134 
f 135/135/135 137/137/137 133/133/133 
f 138/138/138 133/133/133 137/137/137 
f 137/137/137 139/139/139 138/138/138 
f 140/140/140 138/138/138 139/139/139 
f 139/139/139 141/141/141 140/140/140 
f 142/142/142 140/140/140 141/141/141 
f 143/143/143 144/144/144 145/145/145 
f 144/144/144 143/143/143 146/146/146 
f 146/146/146 147/147/147 144/144/144 
f 147/147/147 146/146/146 148/148/148 
f 148/148/148 149/149/149 147/147/147 
f 149/149/149 148/148/148 150/150/150 
f 150/150/150 151/151/151 149/149/149 
f 151/151/151 150/150/150 152/152/152 
f 153/153/153 154/154/154 155/155/155 
f 154/154/154 153/153/153 156/156/156 
f 157/157/157 155/155/155 154/154/154 
f 155/155/155 157/157/157 158/158/158 
f 159/159/159 158/158/158 157/157/157 
f 158/158/158 159/159/159 160/160/160 
f 160/160/160 159/159/159 161/161/161 
f 161/161/161 159/159/159 162/162/162 
f 163/163/163 164/164/164 165/165/165 
f 165/165/165 166/166/166 163/163/163 
f 166/166/166 165/165/165 167/167/167 
f 167/167/167 168/168/168 166/166/166 
f 168/168/168 167/167/167 169/169/169 
f 169/169/169 170/170/170 168/168/168 
f 169/169/169 171/171/171 170/170/170 
f 172/172/172 171/171/171 169/169/169 

